<?xml version="1.0" encoding="utf-8"?>
<!-- Generator: Adobe Illustrator 26.0.3, SVG Export Plug-In . SVG Version: 6.00 Build 0)  -->
<svg version="1.1" id="Layer_1" xmlns="http://www.w3.org/2000/svg" xmlns:xlink="http://www.w3.org/1999/xlink" x="0px" y="0px"
	 viewBox="0 0 1000 282.6" style="enable-background:new 0 0 1000 282.6;" xml:space="preserve">
<style type="text/css">
	.st0{fill:#FFFFFF;}
</style>
<g>
	<g>
		<g>
			<path class="st0" d="M147.83,28.34c-41.37,0-77.42,23.23-95.8,57.33v0.03l7.04-1.9c18.11-30.1,51.12-50.26,88.75-50.26
				c18.22,0,35.35,4.73,50.24,13.05l1.64-0.44l5.41-1.46C188.47,34.34,168.82,28.34,147.83,28.34z M239.83,79.2l-3.77,3.74
				c9.72,15.78,15.33,34.33,15.33,54.19c0,50.11-35.76,92-83.11,101.54h-0.03l-1.48,5.59c50.99-9.02,89.82-53.62,89.82-107.13
				C256.59,115.84,250.46,95.96,239.83,79.2z M44.26,137.13c0-2.37,0.08-4.7,0.23-7.02l-5.12-1.38c-0.21,2.78-0.31,5.56-0.31,8.39
				c0,53.07,38.2,97.38,88.57,106.89l-1.51-5.61C79.4,228.4,44.26,186.8,44.26,137.13z"/>
		</g>
		<polygon class="st0" points="256.2,44.43 188.81,111.82 177.92,152.41 147.22,266.97 123.21,177.39 111.8,134.71 15.55,108.91 
			98.88,86.57 203.05,58.69 		"/>
	</g>
	<g>
		<path class="st0" d="M351.52,191.77V96.5h-18.36l-23.39,30.56l4.88-30.85v-2.73h91.68v2.73l4.88,30.85L387.82,96.5h-18.36v95.27
			l13.06,7.89h-44.05L351.52,191.77z"/>
		<path class="st0" d="M428.56,191.77V102.1l-11.05-8.61h47.06c23.53,0,40.17,11.33,40.17,25.83c0,12.2-11.48,22.53-28.69,26.11
			v2.44l45.63,51.8h-23.1l-43.9-52.23h-8.18v44.34l11.19,7.89h-40.17L428.56,191.77z M446.5,144.42h14.06
			c16.07,0,25.83-10.33,25.83-24.53c0-13.92-9.47-23.39-24.82-23.39H446.5V144.42z"/>
		<path class="st0" d="M517.66,199.66l13.77-7.89l35.44-85.8l-7.03-10.33l21.52-3.73l42.18,100.15l11.48,7.6h-46.92l15.21-7.46
			l-12.63-30.27h-43.33l-11.91,29.84l16.36,7.89H517.66z M548.65,158.91h40.75l-19.94-47.63h-1.58L548.65,158.91z"/>
		<path class="st0" d="M735.32,204.11l-79.49-92.83h-1.72v79.77l15.21,8.61h-34l15.21-8.61v-86.09l-11.19-11.05l24.39-2.01l66,77.19
			h1.87v-67l-15.21-8.61h34.15l-15.21,8.61V204.11z"/>
		<path class="st0" d="M758.56,195.79v-2.44l-4.45-32.43c9.9,24.25,24.39,37.59,41.46,37.59c12.2,0,20.66-7.75,20.66-19.37
			c0-30.13-59.97-20.23-59.97-57.39c0-17.5,15.49-30.56,36.73-30.56c9.9,0,21.23,2.58,29.41,6.89v2.44l4.3,27.4
			c-10.19-21.95-22.53-33.72-37.16-33.72c-11.91,0-20.52,8.04-20.52,19.08c0,27.83,59.97,18.65,59.97,56.96
			c0,17.93-14.06,31.13-35.44,31.13C781.95,201.38,767.45,199.09,758.56,195.79z"/>
		<path class="st0" d="M846.66,191.77v-90.39l-11.05-7.89h40.17l-11.19,7.89v90.39l11.19,7.89h-40.17L846.66,191.77z"/>
		<path class="st0" d="M883.1,145.71c0-29.99,25.54-54.52,56.82-54.52c12.63,0,26.83,2.87,35.3,7.03v2.44l3.87,27.69
			c-10.19-22.38-22.67-34.15-39.17-34c-22.52,0-37.3,20.95-37.3,51.36c0,31.42,14.78,52.51,37.74,52.51
			c16.5,0.14,29.27-12.05,40.32-37.02l-4.73,30.7v2.44c-8.47,4.3-22.81,7.17-35.58,7.03C909.07,201.38,883.1,176.42,883.1,145.71z"
			/>
	</g>
</g>
</svg>
