<?xml version="1.0" encoding="utf-8"?>
<!-- Generator: Adobe Illustrator 26.0.3, SVG Export Plug-In . SVG Version: 6.00 Build 0)  -->
<svg version="1.1" id="Layer_1" xmlns="http://www.w3.org/2000/svg" xmlns:xlink="http://www.w3.org/1999/xlink" x="0px" y="0px"
	 viewBox="0 0 289.51 282.6" style="enable-background:new 0 0 289.51 282.6;" xml:space="preserve">
<style type="text/css">
	.st0{fill:#000F9F;}
</style>
<g>
	<g>
		<g>
			<path class="st0" d="M147.83,28.34c-41.37,0-77.42,23.23-95.8,57.33v0.03l7.04-1.9c18.11-30.1,51.12-50.26,88.75-50.26
				c18.22,0,35.35,4.73,50.24,13.05l1.64-0.44l5.41-1.46C188.47,34.34,168.82,28.34,147.83,28.34z M239.83,79.2l-3.77,3.74
				c9.72,15.78,15.33,34.33,15.33,54.19c0,50.11-35.76,92-83.11,101.54h-0.03l-1.48,5.59c50.99-9.02,89.82-53.62,89.82-107.13
				C256.59,115.84,250.46,95.96,239.83,79.2z M44.26,137.13c0-2.37,0.08-4.7,0.23-7.02l-5.12-1.38c-0.21,2.78-0.31,5.56-0.31,8.39
				c0,53.07,38.2,97.38,88.57,106.89l-1.51-5.61C79.4,228.4,44.26,186.8,44.26,137.13z"/>
		</g>
		<polygon class="st0" points="256.2,44.43 188.81,111.82 177.92,152.41 147.22,266.97 123.21,177.39 111.8,134.71 15.55,108.91 
			98.88,86.57 203.05,58.69 		"/>
	</g>
</g>
</svg>
